# xmcd CD database file generated by OrangeCD 6.2
#
# Track frame offsets:
#	182
#	19515
#	37120
#	56252
#	72960
#	86657
#	113182
#	121807
#	145120
#	166055
#	181552
#	208517
#	220822
#	236672
#	262060
#
# Disc length: 3815 seconds
#
# Revision: 4
# Processed by: cddbd v1.5.2PL0 Copyright (c) Steve Scherf et al.
# Submitted via: OrangeCD 6.2
#
DISCID=c90ee50f
DTITLE=Various Artist - Down And Out Blues
DYEAR=1994
DGENRE=Early R&B
TTITLE0=Byther Smith - Tell Me How You Like It
TTITLE1=Muddy Waters - Walking Blues
TTITLE2=King Curtis - Home Cookin'
TTITLE3=Billy Boy Arnold - Back Door Friend
TTITLE4=Buddy Guy - This Is The End
TTITLE5=Mississippi Fred McDowell - 61 Highway
TTITLE6=Earl Hooker - Hot 'N' Heavy
TTITLE7=Magic Slim - Cummins Prison Farm
TTITLE8=Mighty Joe Young - Why You Want To Hurt Me
TTITLE9=Louisiana Red - Lightnin' Bug
TTITLE10=Joe Carter - Stormy Monday
TTITLE11=Tommy Tucker - Tell Me Who's Wrong
TTITLE12=Big Walter Shakey Horton - That Ain't It
TTITLE13=Eddie Clearwater - Mayor Daley's Blues
TTITLE14=Troyee Key and J J Malone - I Gotta New Car
EXTD=
EXTT0=
EXTT1=
EXTT2=
EXTT3=
EXTT4=
EXTT5=
EXTT6=
EXTT7=
EXTT8=
EXTT9=
EXTT10=
EXTT11=
EXTT12=
EXTT13=
EXTT14=
PLAYORDER=
